<svg xmlns="http://www.w3.org/2000/svg" viewBox="0 0 568 501" fill="white">
    <path
        d="M123.121 33.6637C188.241 82.5526 258.281 181.681 284 234.873C309.719 181.681 379.759 82.5526 444.879 33.6637C491.866 -1.61183 568 -28.9064 568 57.9464C568 75.2916 558.055 192.678 552.222 214.618C532.482 287.93 463.321 305.106 400.504 294.378C507.584 313.41 536.444 379.202 481.333 444.994C376.439 570.571 322.438 409.079 287.385 304.766C284.992 297.722 284.227 296.544 284 296.544C283.773 296.544 283.008 297.722 280.615 304.766C245.562 409.079 191.561 570.571 86.6667 444.994C31.5558 379.202 60.4165 313.41 167.496 294.378C104.679 305.106 35.518 287.93 15.7782 214.618C9.94525 192.678 0 75.2916 0 57.9464C0 -28.9064 76.1344 -1.61183 123.121 33.6637Z" />
</svg>
